<svg width="205" height="50" xmlns="http://www.w3.org/2000/svg" zoomAndPan="magnify" preserveAspectRatio="xMidYMid meet" version="1.2">
 <defs>
  <g id="svg_1"/>
  <clipPath xml:id="clip1" id="clip1">
   <path d="m145.42578,105.5l81.57422,0l0,81.5l-81.57422,0l0,-81.5zm0,0" id="svg_2"/>
  </clipPath>
 </defs>
 <g>
  <title>Layer 1</title>
  <g fill="rgb(73.329163%,23.139954%,23.139954%)" id="svg_9">
   <g id="svg_10">
    <path d="m11.07893,17.01863l3.82813,0c1.98828,0 3.5,0.38672 4.53125,1.15625c1.03125,0.76172 1.54687,1.83984 1.54687,3.23437c0,0.76172 -0.18359,1.4375 -0.54687,2.03125c-0.35547,0.58594 -0.82422,1.07813 -1.40625,1.48438c-0.58594,0.40625 -1.24219,0.71875 -1.96875,0.9375c-0.71875,0.21094 -1.4375,0.3125 -2.15625,0.3125l-1.03125,0l0,6.875c0,0.14844 0.01562,0.30469 0.04687,0.46875c0.03906,0.16797 0.10156,0.32422 0.1875,0.46875c0.08203,0.14844 0.17188,0.27734 0.26563,0.39062c0.10156,0.10547 0.22265,0.15625 0.35937,0.15625l0.14063,0l0,0.26563l-3.79688,0l0,-0.26563l0.125,0c0.13281,0 0.25391,-0.05078 0.35938,-0.15625c0.10156,-0.11328 0.1914,-0.24218 0.26562,-0.39062c0.07031,-0.14453 0.125,-0.30078 0.15625,-0.46875c0.03906,-0.16406 0.0625,-0.32031 0.0625,-0.46875l0,-14.35938c0,-0.25 -0.07422,-0.53515 -0.21875,-0.85937c-0.14844,-0.32031 -0.35547,-0.50391 -0.625,-0.54688l-0.125,0l0,-0.26562zm2.79688,0.95312l0,7.26563l0.8125,0c0.71875,0 1.35937,-0.09766 1.92187,-0.29688c0.5625,-0.19531 1.03125,-0.45703 1.40625,-0.78125c0.38281,-0.32031 0.67578,-0.6875 0.875,-1.09375c0.19531,-0.41406 0.29688,-0.84375 0.29688,-1.28125c0,-0.51953 -0.08985,-1.00781 -0.26563,-1.46875c-0.16797,-0.45703 -0.44531,-0.85937 -0.82812,-1.20312c-0.38672,-0.35156 -0.89844,-0.62891 -1.53125,-0.82813c-0.625,-0.20703 -1.39844,-0.3125 -2.3125,-0.3125l-0.375,0zm0,0" id="svg_11"/>
   </g>
  </g>
  <g fill="rgb(73.329163%,23.139954%,23.139954%)" id="svg_12">
   <g id="svg_13">
    <path d="m26.06994,17.01863l3.85938,0l0,0.26562l-0.14063,0c-0.125,0 -0.24219,0.05469 -0.34375,0.15625c-0.10547,0.09375 -0.19531,0.21094 -0.26562,0.34375c-0.07422,0.13672 -0.13672,0.29297 -0.1875,0.46875c-0.04297,0.16797 -0.0625,0.3125 -0.0625,0.4375l0,14.35938c0,0.14844 0.01562,0.30469 0.04687,0.46875c0.03906,0.16797 0.10156,0.32422 0.1875,0.46875c0.08203,0.14844 0.17188,0.27734 0.26563,0.39062c0.10156,0.10547 0.22265,0.15625 0.35937,0.15625l0.14063,0l0,0.26563l-3.85938,0l0,-0.26563l0.14063,0c0.14453,0 0.26953,-0.04687 0.375,-0.14062c0.11328,-0.10156 0.20703,-0.23438 0.28125,-0.39063c0.08203,-0.15625 0.14062,-0.3164 0.17187,-0.48437c0.03906,-0.16406 0.0625,-0.32031 0.0625,-0.46875l0,-14.35938c0,-0.125 -0.02344,-0.26562 -0.0625,-0.42187c-0.03125,-0.16406 -0.08984,-0.32031 -0.17187,-0.46875c-0.07422,-0.14453 -0.16797,-0.26563 -0.28125,-0.35938c-0.10547,-0.10156 -0.23047,-0.15625 -0.375,-0.15625l-0.14063,0l0,-0.26562zm0,0" id="svg_14"/>
   </g>
  </g>
  <g fill="rgb(73.329163%,23.139954%,23.139954%)" id="svg_15">
   <g id="svg_16">
    <path d="m46.12012,30.03425c0,0.89844 -0.18359,1.66407 -0.54687,2.29688c-0.35547,0.63672 -0.82032,1.15234 -1.39063,1.54687c-0.5625,0.39844 -1.19922,0.6875 -1.90625,0.875c-0.71094,0.17579 -1.41406,0.26563 -2.10937,0.26563c-0.71875,0 -1.33985,-0.07422 -1.85938,-0.21875c-0.52344,-0.14453 -1,-0.28125 -1.4375,-0.40625c-0.28125,-0.08203 -0.54297,-0.15625 -0.78125,-0.21875c-0.23047,-0.07031 -0.46094,-0.10938 -0.6875,-0.10938l0,-3.0625l0.26563,0c0,0.67969 0.17187,1.21875 0.51562,1.625c0.35156,0.40625 0.76563,0.71875 1.23438,0.9375c0.46875,0.21094 0.92968,0.34375 1.39062,0.40625c0.46875,0.0625 0.8125,0.09375 1.03125,0.09375c0.76953,0 1.42969,-0.10937 1.98438,-0.32812c0.5625,-0.22656 1.01953,-0.52344 1.375,-0.89063c0.36328,-0.36328 0.6289,-0.76953 0.79687,-1.21875c0.17578,-0.45703 0.26563,-0.91406 0.26563,-1.375c0,-0.59375 -0.125,-1.09375 -0.375,-1.5c-0.25,-0.40625 -0.57813,-0.75781 -0.98438,-1.0625c-0.40625,-0.30078 -0.87109,-0.5625 -1.39062,-0.78125c-0.52344,-0.21875 -1.05469,-0.4375 -1.59375,-0.65625c-0.60547,-0.22656 -1.20313,-0.46875 -1.79688,-0.71875c-0.59375,-0.25 -1.125,-0.55468 -1.59375,-0.92187c-0.46875,-0.375 -0.85156,-0.81641 -1.14062,-1.32813c-0.28125,-0.50781 -0.42188,-1.14453 -0.42188,-1.90625c0,-0.78125 0.14844,-1.46093 0.45313,-2.04687c0.3125,-0.58203 0.72265,-1.0625 1.23437,-1.4375c0.50781,-0.38281 1.09375,-0.67188 1.75,-0.85938c0.65625,-0.1875 1.32031,-0.28125 2,-0.28125c0.46875,0 0.90625,0.03125 1.3125,0.09375c0.41406,0.0625 0.81641,0.14063 1.20313,0.23438c0.30078,0.07422 0.59375,0.13281 0.875,0.17187c0.28906,0.04297 0.57031,0.0625 0.84375,0.0625l0,2.78125l-0.26563,0c-0.04297,-0.9375 -0.41406,-1.57031 -1.10937,-1.90625c-0.69922,-0.33203 -1.66797,-0.5 -2.90625,-0.5c-0.71875,0 -1.3086,0.125 -1.76563,0.375c-0.46094,0.24219 -0.82422,0.53907 -1.09375,0.89063c-0.27344,0.34375 -0.46094,0.71875 -0.5625,1.125c-0.09375,0.40625 -0.14062,0.76172 -0.14062,1.0625c0,0.5 0.10937,0.93359 0.32812,1.29687c0.22656,0.35547 0.53125,0.66797 0.90625,0.9375c0.38281,0.27344 0.82031,0.51563 1.3125,0.73438c0.5,0.21094 1.01563,0.41406 1.54688,0.60937c0.61328,0.24219 1.23437,0.4961 1.85937,0.76563c0.63281,0.26172 1.19531,0.58984 1.6875,0.98437c0.48828,0.39844 0.89063,0.88672 1.20313,1.46875c0.32031,0.57422 0.48437,1.27344 0.48437,2.09375zm0,0" id="svg_17"/>
   </g>
  </g>
  <g fill="rgb(73.329163%,23.139954%,23.139954%)" id="svg_18">
   <g id="svg_19">
    <path d="m57.91571,34.53425l0.125,0l0,0.26563l-3.8125,0l0,-0.26563l0.125,0c0.14453,0 0.26953,-0.05078 0.375,-0.15625c0.11328,-0.11328 0.20703,-0.24218 0.28125,-0.39062c0.08203,-0.14453 0.14063,-0.30078 0.17188,-0.46875c0.03906,-0.16406 0.0625,-0.32031 0.0625,-0.46875l0,-15.03125l-3.125,0c-0.28125,0 -0.53125,0.0625 -0.75,0.1875c-0.21875,0.125 -0.40235,0.28125 -0.54688,0.46875c-0.13672,0.1875 -0.24219,0.39844 -0.3125,0.625c-0.07422,0.21875 -0.10937,0.4375 -0.10937,0.65625l-0.26563,0l0,-2.9375l12.09375,0l0,2.9375l-0.28125,0c0,-0.21875 -0.03906,-0.4375 -0.10937,-0.65625c-0.0625,-0.22656 -0.16797,-0.4375 -0.3125,-0.625c-0.14844,-0.1875 -0.32813,-0.34375 -0.54688,-0.46875c-0.21094,-0.125 -0.46094,-0.1875 -0.75,-0.1875l-3.17187,0l0,15.03125c0,0.14844 0.01562,0.30469 0.04687,0.46875c0.03125,0.16797 0.08594,0.32422 0.17188,0.46875c0.08203,0.14844 0.17187,0.27734 0.26562,0.39062c0.10156,0.10547 0.22656,0.15625 0.375,0.15625zm0,0" id="svg_20"/>
   </g>
  </g>
  <g fill="rgb(73.329163%,23.139954%,23.139954%)" id="svg_21">
   <g id="svg_22">
    <path d="m76.68134,34.53425l0.14063,0c0.42578,0 0.64062,-0.19531 0.64062,-0.59375c0,-0.14453 -0.02734,-0.29687 -0.07812,-0.45312l-2.42188,-6.54688l-4.71875,0l-2.34375,6.4375c-0.05469,0.13672 -0.07812,0.26563 -0.07812,0.39063c0,0.24219 0.0625,0.42969 0.1875,0.5625c0.125,0.13672 0.25781,0.20312 0.40625,0.20312l0.125,0l0,0.26563l-2.98438,0l0,-0.26563l0.14063,0c0.22656,0 0.45312,-0.14062 0.67187,-0.42187c0.22656,-0.28125 0.41406,-0.60938 0.5625,-0.98438l6.17188,-16.4375l6.03125,16.28125c0.125,0.35547 0.29687,0.70313 0.51562,1.04688c0.22656,0.34375 0.52344,0.51562 0.89063,0.51562l0.125,0l0,0.26563l-3.98438,0l0,-0.26563zm-6.17187,-8.51562l4.15625,0l-2.07813,-5.625l-2.07812,5.625zm0,0" id="svg_23"/>
   </g>
  </g>
  <g fill="rgb(73.329163%,23.139954%,23.139954%)" id="svg_24">
   <g id="svg_25">
    <path d="m88.68552,34.53425l0.14062,0l0,0.26563l-3.84375,0l0,-0.26563l0.125,0c0.14453,0 0.26953,-0.05078 0.375,-0.15625c0.11328,-0.11328 0.20703,-0.24218 0.28125,-0.39062c0.08203,-0.14453 0.14063,-0.30078 0.17188,-0.46875c0.03906,-0.16406 0.0625,-0.32031 0.0625,-0.46875l0,-14.35938c0,-0.125 -0.02344,-0.26562 -0.0625,-0.42187c-0.03125,-0.16406 -0.08985,-0.32031 -0.17188,-0.46875c-0.07422,-0.14453 -0.16797,-0.26563 -0.28125,-0.35938c-0.10547,-0.10156 -0.21875,-0.15625 -0.34375,-0.15625l-0.14062,0l0,-0.26562l3.85937,0l0,0.26562l-0.14062,0c-0.14844,0 -0.27344,0.05469 -0.375,0.15625c-0.10547,0.09375 -0.19922,0.21485 -0.28125,0.35938c-0.08594,0.14844 -0.14844,0.30469 -0.1875,0.46875c-0.04297,0.15625 -0.0625,0.29687 -0.0625,0.42187l0,6.25l6.82812,-6.78125c0.11328,-0.125 0.17188,-0.26953 0.17188,-0.4375c0,-0.28906 -0.10938,-0.4375 -0.32813,-0.4375l-0.125,0l0,-0.26562l3.28125,0l0,0.26562l-0.14062,0c-0.25,0 -0.51172,0.09375 -0.78125,0.28125c-0.27344,0.17969 -0.53907,0.40235 -0.79688,0.67188l-5.67187,5.625l5.95312,9.03125c0.01953,0.03125 0.10156,0.14062 0.25,0.32812c0.14453,0.17969 0.31641,0.36719 0.51563,0.5625c0.20703,0.1875 0.4414,0.35938 0.70312,0.51563c0.25781,0.15625 0.52344,0.23437 0.79688,0.23437l0,0.26563l-0.64063,0c-0.54297,0 -0.99609,-0.03125 -1.35937,-0.09375c-0.36719,-0.0625 -0.6836,-0.16406 -0.95313,-0.3125c-0.27344,-0.14453 -0.51172,-0.32031 -0.71875,-0.53125c-0.21094,-0.21875 -0.42187,-0.48828 -0.64062,-0.8125l-5.21875,-7.89063l-1.125,1.15625l0,6.73438c0,0.14844 0.01953,0.30469 0.0625,0.46875c0.03906,0.15625 0.09765,0.3125 0.17187,0.46875c0.07031,0.14844 0.16016,0.27734 0.26563,0.39062c0.11328,0.10547 0.23828,0.15625 0.375,0.15625zm0,0" id="svg_26"/>
   </g>
  </g>
  <g fill="rgb(73.329163%,23.139954%,23.139954%)" id="svg_27">
   <g id="svg_28">
    <path d="m103.01212,17.01863l3.85938,0l0,0.26562l-0.14063,0c-0.125,0 -0.24219,0.05469 -0.34375,0.15625c-0.10547,0.09375 -0.19531,0.21094 -0.26562,0.34375c-0.07422,0.13672 -0.13672,0.29297 -0.1875,0.46875c-0.04297,0.16797 -0.0625,0.3125 -0.0625,0.4375l0,14.35938c0,0.14844 0.01562,0.30469 0.04687,0.46875c0.03906,0.16797 0.10156,0.32422 0.1875,0.46875c0.08203,0.14844 0.17188,0.27734 0.26563,0.39062c0.10156,0.10547 0.22265,0.15625 0.35937,0.15625l0.14063,0l0,0.26563l-3.85938,0l0,-0.26563l0.14063,0c0.14453,0 0.26953,-0.04687 0.375,-0.14062c0.11328,-0.10156 0.20703,-0.23438 0.28125,-0.39063c0.08203,-0.15625 0.14062,-0.3164 0.17187,-0.48437c0.03906,-0.16406 0.0625,-0.32031 0.0625,-0.46875l0,-14.35938c0,-0.125 -0.02344,-0.26562 -0.0625,-0.42187c-0.03125,-0.16406 -0.08984,-0.32031 -0.17187,-0.46875c-0.07422,-0.14453 -0.16797,-0.26563 -0.28125,-0.35938c-0.10547,-0.10156 -0.23047,-0.15625 -0.375,-0.15625l-0.14063,0l0,-0.26562zm0,0" id="svg_29"/>
   </g>
  </g>
  <g fill="rgb(73.329163%,23.139954%,23.139954%)" id="svg_30">
   <g id="svg_31">
    <path d="m122.4373,34.53425l0.14063,0c0.42578,0 0.64062,-0.19531 0.64062,-0.59375c0,-0.14453 -0.02734,-0.29687 -0.07812,-0.45312l-2.42188,-6.54688l-4.71875,0l-2.34375,6.4375c-0.05469,0.13672 -0.07812,0.26563 -0.07812,0.39063c0,0.24219 0.0625,0.42969 0.1875,0.5625c0.125,0.13672 0.25781,0.20312 0.40625,0.20312l0.125,0l0,0.26563l-2.98438,0l0,-0.26563l0.14063,0c0.22656,0 0.45312,-0.14062 0.67187,-0.42187c0.22656,-0.28125 0.41406,-0.60938 0.5625,-0.98438l6.17188,-16.4375l6.03125,16.28125c0.125,0.35547 0.29687,0.70313 0.51562,1.04688c0.22656,0.34375 0.52344,0.51562 0.89063,0.51562l0.125,0l0,0.26563l-3.98438,0l0,-0.26563zm-6.17187,-8.51562l4.15625,0l-2.07813,-5.625l-2.07812,5.625zm0,0" id="svg_32"/>
   </g>
  </g>
  <g fill="rgb(73.329163%,23.139954%,23.139954%)" id="svg_33">
   <g id="svg_34">
    <path d="m132.94149,17.97175c0,0.10547 0.02343,0.23438 0.07812,0.39063l4.75,12.78125l4.73438,-12.90625c0.01953,-0.03906 0.03515,-0.09375 0.04687,-0.15625c0.01953,-0.07031 0.03125,-0.12891 0.03125,-0.17188c0,-0.21875 -0.08984,-0.375 -0.26562,-0.46875c-0.16797,-0.10156 -0.32032,-0.15625 -0.45313,-0.15625l0,-0.26562l2.9375,0l0,0.26562c-0.27344,0 -0.52344,0.07422 -0.75,0.21875c-0.21875,0.14844 -0.39844,0.39063 -0.53125,0.73438l-6.15625,16.89063l-6.3125,-16.81251c-0.10547,-0.26953 -0.26172,-0.5039 -0.46875,-0.70312c-0.21094,-0.19531 -0.46484,-0.30469 -0.76562,-0.32813l0,-0.26562l3.82812,0l0,0.26562c-0.16797,0 -0.32812,0.0625 -0.48437,0.1875c-0.14844,0.11719 -0.21875,0.28125 -0.21875,0.5zm0,0" id="svg_35"/>
   </g>
  </g>
  <g fill="rgb(73.329163%,23.139954%,23.139954%)" id="svg_36">
   <g id="svg_37">
    <path d="m149.29372,34.53425l0.125,0c0.14453,0 0.26953,-0.04687 0.375,-0.14062c0.11328,-0.10156 0.20703,-0.22656 0.28125,-0.375c0.08203,-0.14453 0.14453,-0.29688 0.1875,-0.45313c0.05078,-0.16406 0.07813,-0.32031 0.07813,-0.46875l0,-14.40625c0,-0.125 -0.02735,-0.26562 -0.07813,-0.42187c-0.04297,-0.16406 -0.10547,-0.32031 -0.1875,-0.46875c-0.07422,-0.14453 -0.16797,-0.26563 -0.28125,-0.35938c-0.10547,-0.10156 -0.23047,-0.15625 -0.375,-0.15625l-0.125,0l0,-0.26562l10.35938,0l0,2.5l-0.26563,0c-0.03125,-0.40625 -0.19531,-0.76563 -0.48437,-1.07813c-0.29297,-0.3125 -0.74219,-0.46875 -1.34375,-0.46875l-5.42188,0l0,6.8125l4.48438,0c0.40625,0 0.75,-0.125 1.03125,-0.375c0.28125,-0.25781 0.42187,-0.55468 0.42187,-0.89062l0.26563,0l0,3.35937l-0.26563,0c0,-0.32031 -0.13672,-0.59765 -0.40625,-0.82812c-0.27344,-0.23828 -0.62109,-0.35938 -1.04687,-0.35938l-4.48438,0l0,8.17188l5.90625,0c0.34375,0 0.64063,-0.07813 0.89063,-0.23438c0.25,-0.16406 0.45703,-0.35937 0.625,-0.57812c0.17578,-0.22656 0.30078,-0.47266 0.375,-0.73438c0.08203,-0.25781 0.125,-0.48437 0.125,-0.67187l0.26562,0l0,3.15625l-11.03125,0l0,-0.26563zm0,0" id="svg_38"/>
   </g>
  </g>
  <g fill="rgb(73.329163%,23.139954%,23.139954%)" id="svg_39">
   <g id="svg_40">
    <path d="m168.70465,34.53425l0.14063,0l0,0.26563l-3.79688,0l0,-0.26563l0.125,0c0.125,0 0.23828,-0.05078 0.34375,-0.15625c0.11328,-0.11328 0.20703,-0.24218 0.28125,-0.39062c0.08203,-0.14453 0.14063,-0.30078 0.17188,-0.46875c0.03906,-0.16406 0.0625,-0.32031 0.0625,-0.46875l0,-14.35938c0,-0.125 -0.02344,-0.26562 -0.0625,-0.42187c-0.03125,-0.16406 -0.08985,-0.32031 -0.17188,-0.46875c-0.07422,-0.14453 -0.16797,-0.26563 -0.28125,-0.35938c-0.10547,-0.10156 -0.21875,-0.15625 -0.34375,-0.15625l-0.125,0l0,-0.26562l4.6875,0c1.78906,0 3.17578,0.35547 4.15625,1.0625c0.97656,0.69922 1.46875,1.73047 1.46875,3.09375c0,0.67969 -0.11719,1.27344 -0.34375,1.78125c-0.21875,0.51172 -0.52344,0.95312 -0.90625,1.32812c-0.375,0.36719 -0.82031,0.66407 -1.32812,0.89063c-0.51172,0.21875 -1.05469,0.38672 -1.625,0.5l1.9375,2.95312c0.46875,0.71875 0.9414,1.42969 1.42187,2.125c0.48828,0.6875 0.96875,1.40235 1.4375,2.14063c0.125,0.17969 0.25781,0.36719 0.40625,0.5625c0.15625,0.19922 0.31641,0.38281 0.48438,0.54687c0.17578,0.15625 0.35937,0.28907 0.54687,0.39063c0.1875,0.09375 0.37891,0.14062 0.57813,0.14062l0,0.26563l-1.15625,0c-0.71875,0 -1.3086,-0.17188 -1.76563,-0.51563c-0.46094,-0.35156 -0.83984,-0.76562 -1.14062,-1.23437c-0.8125,-1.1875 -1.6211,-2.39063 -2.42188,-3.60938c-0.79297,-1.21875 -1.58594,-2.42187 -2.375,-3.60937c-0.19922,-0.01953 -0.41406,-0.03906 -0.64062,-0.0625c-0.21875,-0.03125 -0.42969,-0.0625 -0.625,-0.09375l0,7.375c0,0.14844 0.01562,0.30469 0.04687,0.46875c0.03906,0.16797 0.09766,0.32422 0.17188,0.46875c0.08203,0.14844 0.17187,0.27734 0.26562,0.39062c0.10156,0.10547 0.22656,0.15625 0.375,0.15625zm-0.85937,-16.59375l0,6.84375l0.125,0c0.14453,0.01172 0.375,0.02344 0.6875,0.03125c0.32031,0.01172 0.71093,0.01563 1.17187,0.01563c0.38281,0 0.78516,-0.05469 1.20313,-0.17188c0.42578,-0.11328 0.82031,-0.3125 1.1875,-0.59375c0.36328,-0.28125 0.66406,-0.64453 0.90625,-1.09375c0.25,-0.44531 0.375,-1.00781 0.375,-1.6875c0,-0.6875 -0.13282,-1.24218 -0.39063,-1.67187c-0.26172,-0.4375 -0.62109,-0.78125 -1.07812,-1.03125c-0.46094,-0.25 -1.01172,-0.41406 -1.65625,-0.5c-0.64844,-0.09375 -1.35547,-0.14063 -2.125,-0.14063l-0.40625,0zm0,0" id="svg_41"/>
   </g>
  </g>
  <g fill="rgb(73.329163%,23.139954%,23.139954%)" id="svg_42">
   <g id="svg_43">
    <path d="m192.56546,34.53425l0.14063,0c0.42578,0 0.64062,-0.19531 0.64062,-0.59375c0,-0.14453 -0.02734,-0.29687 -0.07812,-0.45312l-2.42188,-6.54688l-4.71875,0l-2.34375,6.4375c-0.05469,0.13672 -0.07812,0.26563 -0.07812,0.39063c0,0.24219 0.0625,0.42969 0.1875,0.5625c0.125,0.13672 0.25781,0.20312 0.40625,0.20312l0.125,0l0,0.26563l-2.98438,0l0,-0.26563l0.14063,0c0.22656,0 0.45312,-0.14062 0.67187,-0.42187c0.22656,-0.28125 0.41406,-0.60938 0.5625,-0.98438l6.17188,-16.4375l6.03125,16.28125c0.125,0.35547 0.29687,0.70313 0.51562,1.04688c0.22656,0.34375 0.52344,0.51562 0.89063,0.51562l0.125,0l0,0.26563l-3.98438,0l0,-0.26563zm-6.17187,-8.51562l4.15625,0l-2.07813,-5.625l-2.07812,5.625zm0,0" id="svg_44"/>
   </g>
  </g>
  <g fill="rgb(0%,0%,0%)" id="svg_45">
   <g id="svg_46">
    <path id="svg_47"/>
   </g>
  </g>
  <g fill="rgb(0%,0%,0%)" id="svg_69">
   <g id="svg_70">
    <path id="svg_71"/>
   </g>
  </g>
 </g>
</svg>